STARTFONT 2.1
FONT --New York-Regular-R-Normal--40-360-80-80-P-215-APPLE-ROMAN
SIZE 36 80 80
FONTBOUNDINGBOX 37 40 0 -7
METRICSSET 2
STARTPROPERTIES 19
FONT_ASCENT 33
FONT_DESCENT 7
PIXEL_SIZE 40
RESOLUTION_X 80
RESOLUTION_Y 80
POINT_SIZE 360
FACE_NAME "New York Regular 36"
FOUNDRY ""
FAMILY_NAME "New York"
WEIGHT_NAME "Regular"
RELATIVE_WEIGHT 50
SLANT "R"
SPACING "P"
SETWIDTH_NAME "Normal"
RELATIVE_SETWIDTH 50
ADD_STYLE_NAME ""
AVERAGE_WIDTH 215
CHARSET_REGISTRY "APPLE"
CHARSET_ENCODING "ROMAN"
ENDPROPERTIES
CHARS 170
STARTCHAR char00
ENCODING 0
SWIDTH 0 0
DWIDTH 0 0
BBX 0 0 0 -7
VVECTOR 0 -7
SWIDTH1 0 0
DWIDTH1 0 0
BITMAP 
ENDCHAR
STARTCHAR char09
ENCODING 9
SWIDTH 600 0
DWIDTH 24 0
BBX 0 0 24 -7
VVECTOR 24 -7
SWIDTH1 0 0
DWIDTH1 0 0
BITMAP 
ENDCHAR
STARTCHAR char0D
ENCODING 13
SWIDTH 0 0
DWIDTH 0 0
BBX 0 0 0 -7
VVECTOR 0 -7
SWIDTH1 0 0
DWIDTH1 0 0
BITMAP 
ENDCHAR
STARTCHAR space
ENCODING 32
SWIDTH 300 0
DWIDTH 12 0
BBX 0 0 12 -7
VVECTOR 12 -7
SWIDTH1 0 0
DWIDTH1 0 0
BITMAP 
ENDCHAR
STARTCHAR exclam
ENCODING 33
SWIDTH 300 0
DWIDTH 12 0
BBX 5 27 5 0
VVECTOR 8 33
SWIDTH1 0 -1000
DWIDTH1 0 -40
BITMAP 
70
F8
F8
F8
F8
F8
F8
F8
70
70
70
70
70
70
70
70
20
20
20
20
20
00
20
70
70
70
20
ENDCHAR
STARTCHAR quotedbl
ENCODING 34
SWIDTH 450 0
DWIDTH 18 0
BBX 7 5 5 22
VVECTOR 9 33
SWIDTH1 0 -1000
DWIDTH1 0 -40
BITMAP 
C6
C6
C6
C6
C6
ENDCHAR
STARTCHAR numbersign
ENCODING 35
SWIDTH 600 0
DWIDTH 24 0
BBX 18 14 3 13
VVECTOR 12 33
SWIDTH1 0 -1000
DWIDTH1 0 -40
BITMAP 
008200
008200
010400
010400
3FFFC0
020800
020800
041000
041000
FFFF00
082000
082000
104000
104000
ENDCHAR
STARTCHAR dollar
ENCODING 36
SWIDTH 600 0
DWIDTH 24 0
BBX 16 33 5 -3
VVECTOR 13 33
SWIDTH1 0 -1000
DWIDTH1 0 -40
BITMAP 
0240
0240
0240
0FF0
325C
624E
6246
E242
E240
E240
7240
7A40
3E40
1F40
0FC0
03F0
02F8
027C
025E
024E
0247
0247
0247
8247
8247
C246
E246
F24C
7A58
1FE0
0240
0240
0240
ENDCHAR
STARTCHAR percent
ENCODING 37
SWIDTH 800 0
DWIDTH 32 0
BBX 15 26 9 0
VVECTOR 17 33
SWIDTH1 0 -1000
DWIDTH1 0 -40
BITMAP 
3804
4404
C608
C608
C610
C610
C620
4420
3840
0040
0080
0080
0100
0100
0200
0200
0400
0438
0844
08C6
10C6
10C6
20C6
20C6
4044
4038
ENDCHAR
STARTCHAR ampersand
ENCODING 38
SWIDTH 800 0
DWIDTH 32 0
BBX 25 27 4 0
VVECTOR 17 33
SWIDTH1 0 -1000
DWIDTH1 0 -40
BITMAP 
03F00000
0E180000
1C0C0000
180C0000
380C0000
380C0000
38180000
38300000
1CC00000
1F000000
0F000000
07800000
0BC07C00
19E01000
30F01000
70782000
603C2000
E01E4000
E00F4000
E0078000
E003C000
E001E000
7002F000
780C7800
3E183C00
1FF01E00
07C07F80
ENDCHAR
STARTCHAR quotesingle
ENCODING 39
SWIDTH 250 0
DWIDTH 10 0
BBX 2 6 4 21
VVECTOR 5 33
SWIDTH1 0 -1000
DWIDTH1 0 -40
BITMAP 
C0
C0
C0
C0
C0
C0
ENDCHAR
STARTCHAR parenleft
ENCODING 40
SWIDTH 400 0
DWIDTH 16 0
BBX 7 32 5 -3
VVECTOR 9 33
SWIDTH1 0 -1000
DWIDTH1 0 -40
BITMAP 
02
04
08
18
10
30
20
60
60
C0
C0
C0
C0
C0
C0
C0
C0
C0
C0
C0
C0
C0
C0
60
60
20
30
10
18
08
04
02
ENDCHAR
STARTCHAR parenright
ENCODING 41
SWIDTH 400 0
DWIDTH 16 0
BBX 7 32 4 -3
VVECTOR 8 33
SWIDTH1 0 -1000
DWIDTH1 0 -40
BITMAP 
80
40
20
30
10
18
08
0C
0C
06
06
06
06
06
06
06
06
06
06
06
06
06
06
0C
0C
08
18
10
30
20
40
80
ENDCHAR
STARTCHAR asterisk
ENCODING 42
SWIDTH 400 0
DWIDTH 16 0
BBX 13 13 2 15
VVECTOR 9 33
SWIDTH1 0 -1000
DWIDTH1 0 -40
BITMAP 
0200
0200
2220
1240
0A80
0700
FFF8
0700
0A80
1240
2220
0200
0200
ENDCHAR
STARTCHAR plus
ENCODING 43
SWIDTH 500 0
DWIDTH 20 0
BBX 13 13 4 5
VVECTOR 11 33
SWIDTH1 0 -1000
DWIDTH1 0 -40
BITMAP 
0200
0200
0200
0200
0200
0200
FFF8
0200
0200
0200
0200
0200
0200
ENDCHAR
STARTCHAR comma
ENCODING 44
SWIDTH 300 0
DWIDTH 12 0
BBX 3 7 4 -2
VVECTOR 6 33
SWIDTH1 0 -1000
DWIDTH1 0 -40
BITMAP 
40
E0
E0
E0
60
40
80
ENDCHAR
STARTCHAR hyphen
ENCODING 45
SWIDTH 500 0
DWIDTH 20 0
BBX 13 1 3 11
VVECTOR 10 33
SWIDTH1 0 -1000
DWIDTH1 0 -40
BITMAP 
FFF8
ENDCHAR
STARTCHAR period
ENCODING 46
SWIDTH 300 0
DWIDTH 12 0
BBX 3 5 4 0
VVECTOR 6 33
SWIDTH1 0 -1000
DWIDTH1 0 -40
BITMAP 
40
E0
E0
E0
40
ENDCHAR
STARTCHAR slash
ENCODING 47
SWIDTH 500 0
DWIDTH 20 0
BBX 14 28 3 0
VVECTOR 10 33
SWIDTH1 0 -1000
DWIDTH1 0 -40
BITMAP 
0004
0004
0008
0008
0010
0010
0020
0020
0040
0040
0080
0080
0100
0100
0200
0200
0400
0400
0800
0800
1000
1000
2000
2000
4000
4000
8000
8000
ENDCHAR
STARTCHAR zero
ENCODING 48
SWIDTH 600 0
DWIDTH 24 0
BBX 17 27 3 0
VVECTOR 12 33
SWIDTH1 0 -1000
DWIDTH1 0 -40
BITMAP 
03E000
0C1800
180C00
300600
300600
600300
600300
E00380
E00380
E00380
E00380
E00380
E00380
E00380
E00380
E00380
E00380
E00380
E00380
E00380
600300
600300
300600
300600
180C00
0C1800
03E000
ENDCHAR
STARTCHAR one
ENCODING 49
SWIDTH 600 0
DWIDTH 24 0
BBX 9 27 8 0
VVECTOR 13 33
SWIDTH1 0 -1000
DWIDTH1 0 -40
BITMAP 
0C00
1C00
3C00
FC00
1C00
1C00
1C00
1C00
1C00
1C00
1C00
1C00
1C00
1C00
1C00
1C00
1C00
1C00
1C00
1C00
1C00
1C00
1C00
1C00
1C00
1C00
FF80
ENDCHAR
STARTCHAR two
ENCODING 50
SWIDTH 600 0
DWIDTH 24 0
BBX 17 27 3 0
VVECTOR 12 33
SWIDTH1 0 -1000
DWIDTH1 0 -40
BITMAP 
03F800
0FFE00
101F00
200700
400380
400380
000380
000380
000780
000700
000F00
000E00
001C00
003800
007000
00E000
01C000
030000
060000
0C0000
100000
200080
200080
400180
7FFF80
FFFF80
FFFF80
ENDCHAR
STARTCHAR three
ENCODING 51
SWIDTH 600 0
DWIDTH 24 0
BBX 17 30 3 -3
VVECTOR 12 33
SWIDTH1 0 -1000
DWIDTH1 0 -40
BITMAP 
07F800
0E1C00
180E00
100E00
000E00
000C00
001C00
001800
003000
006000
01F000
07FC00
183E00
000F00
000700
000780
000380
000380
000380
000380
000380
000380
000380
000300
600700
E00600
F00E00
F01C00
783800
1FE000
ENDCHAR
STARTCHAR four
ENCODING 52
SWIDTH 600 0
DWIDTH 24 0
BBX 19 27 2 0
VVECTOR 12 33
SWIDTH1 0 -1000
DWIDTH1 0 -40
BITMAP 
000180
000300
000600
000C00
001800
003000
006000
00C000
018300
030700
060700
0C0700
180700
300700
600700
C00700
FFFFE0
FFFFE0
000700
000700
000700
000700
000700
000700
000700
000700
003FE0
ENDCHAR
STARTCHAR five
ENCODING 53
SWIDTH 600 0
DWIDTH 24 0
BBX 17 32 3 -3
VVECTOR 12 33
SWIDTH1 0 -1000
DWIDTH1 0 -40
BITMAP 
001C00
01FC00
0FFC00
3FE000
3E0000
300000
200000
200000
200000
3F8000
3FF000
3FF800
01FC00
003E00
001E00
000F00
000700
000780
000780
000380
000380
000380
000380
000300
000300
000600
000600
000C00
001800
007000
01C000
FE0000
ENDCHAR
STARTCHAR six
ENCODING 54
SWIDTH 600 0
DWIDTH 24 0
BBX 17 29 3 0
VVECTOR 12 33
SWIDTH1 0 -1000
DWIDTH1 0 -40
BITMAP 
003800
00E000
038000
070000
0E0000
1C0000
380000
300000
700000
700000
600000
E00000
E1F000
E3FC00
E41E00
E00F00
E00700
E00780
E00380
E00380
E00380
E00380
E00380
700300
700700
380600
1C0C00
0F1800
03E000
ENDCHAR
STARTCHAR seven
ENCODING 55
SWIDTH 600 0
DWIDTH 24 0
BBX 18 27 3 0
VVECTOR 12 33
SWIDTH1 0 -1000
DWIDTH1 0 -40
BITMAP 
FFFFC0
FFFFC0
FFFFC0
800080
000080
000100
000100
000200
000200
000400
000400
000800
000800
001000
001000
002000
002000
004000
004000
008000
008000
010000
010000
020000
020000
040000
040000
ENDCHAR
STARTCHAR eight
ENCODING 56
SWIDTH 600 0
DWIDTH 24 0
BBX 17 27 3 0
VVECTOR 12 33
SWIDTH1 0 -1000
DWIDTH1 0 -40
BITMAP 
03E000
0C3800
181C00
100C00
300E00
300E00
300E00
301C00
181C00
1C3800
0F7000
07C000
03F000
0C7C00
381E00
700F00
700700
E00380
E00380
E00380
E00380
E00380
E00300
700700
700E00
1C1C00
03F000
ENDCHAR
STARTCHAR nine
ENCODING 57
SWIDTH 600 0
DWIDTH 24 0
BBX 17 29 3 -2
VVECTOR 12 33
SWIDTH1 0 -1000
DWIDTH1 0 -40
BITMAP 
03E000
0C7800
181C00
300E00
700700
600700
E00380
E00380
E00380
E00380
E00380
F00380
700380
780380
3C1380
1FE380
07C380
000380
000300
000700
000700
000600
000E00
001C00
003800
007000
00E000
038000
0E0000
ENDCHAR
STARTCHAR colon
ENCODING 58
SWIDTH 300 0
DWIDTH 12 0
BBX 3 18 4 0
VVECTOR 6 33
SWIDTH1 0 -1000
DWIDTH1 0 -40
BITMAP 
40
E0
E0
E0
40
00
00
00
00
00
00
00
00
40
E0
E0
E0
40
ENDCHAR
STARTCHAR semicolon
ENCODING 59
SWIDTH 300 0
DWIDTH 12 0
BBX 3 20 4 -2
VVECTOR 6 33
SWIDTH1 0 -1000
DWIDTH1 0 -40
BITMAP 
40
E0
E0
E0
40
00
00
00
00
00
00
00
00
40
E0
E0
E0
60
40
80
ENDCHAR
STARTCHAR less
ENCODING 60
SWIDTH 400 0
DWIDTH 16 0
BBX 10 17 3 3
VVECTOR 8 33
SWIDTH1 0 -1000
DWIDTH1 0 -40
BITMAP 
00C0
0180
0300
0600
0C00
1800
3000
6000
C000
6000
3000
1800
0C00
0600
0300
0180
00C0
ENDCHAR
STARTCHAR equal
ENCODING 61
SWIDTH 500 0
DWIDTH 20 0
BBX 15 7 3 8
VVECTOR 11 33
SWIDTH1 0 -1000
DWIDTH1 0 -40
BITMAP 
FFFE
FFFE
0000
0000
0000
FFFE
FFFE
ENDCHAR
STARTCHAR greater
ENCODING 62
SWIDTH 400 0
DWIDTH 16 0
BBX 10 17 3 3
VVECTOR 8 33
SWIDTH1 0 -1000
DWIDTH1 0 -40
BITMAP 
C000
6000
3000
1800
0C00
0600
0300
0180
00C0
0180
0300
0600
0C00
1800
3000
6000
C000
ENDCHAR
STARTCHAR question
ENCODING 63
SWIDTH 500 0
DWIDTH 20 0
BBX 12 27 4 0
VVECTOR 10 33
SWIDTH1 0 -1000
DWIDTH1 0 -40
BITMAP 
7F00
F080
E040
E020
C020
4030
0030
0030
0070
0070
00E0
01E0
03C0
0780
0F00
1E00
1C00
1800
1000
1000
1000
0000
1000
3800
3800
3800
1000
ENDCHAR
STARTCHAR at
ENCODING 64
SWIDTH 800 0
DWIDTH 32 0
BBX 22 19 5 -1
VVECTOR 16 33
SWIDTH1 0 -1000
DWIDTH1 0 -40
BITMAP 
03FF80
0F00E0
3C0070
380038
707E38
70C71C
E1871C
E1871C
E3871C
E3871C
E3871C
E3871C
E38518
E18930
60F0E0
700000
300000
1C0000
07F000
ENDCHAR
STARTCHAR A
ENCODING 65
SWIDTH 800 0
DWIDTH 32 0
BBX 22 27 6 0
VVECTOR 17 33
SWIDTH1 0 -1000
DWIDTH1 0 -40
BITMAP 
003000
003000
003800
007800
007800
005C00
009C00
009C00
008E00
010E00
010E00
010700
020700
020700
020380
040380
040380
07FFC0
0801C0
0801C0
0800E0
1000E0
1000E0
100070
200070
200070
F801FC
ENDCHAR
STARTCHAR B
ENCODING 66
SWIDTH 600 0
DWIDTH 24 0
BBX 18 27 3 0
VVECTOR 12 33
SWIDTH1 0 -1000
DWIDTH1 0 -40
BITMAP 
FFF000
380C00
380600
380300
380300
380380
380380
380380
380300
380300
380600
3FFC00
380600
380300
380380
380180
3801C0
3801C0
3801C0
3801C0
3801C0
3801C0
380380
380380
380700
3C0C00
FFF000
ENDCHAR
STARTCHAR C
ENCODING 67
SWIDTH 600 0
DWIDTH 24 0
BBX 19 27 2 0
VVECTOR 12 33
SWIDTH1 0 -1000
DWIDTH1 0 -40
BITMAP 
00FF00
0303C0
0E01E0
1C00E0
3C0060
380020
780000
780000
700000
F00000
F00000
F00000
F00000
F00000
F00000
F00000
F00000
F00000
700000
780020
780060
380060
3C00E0
1C00E0
0E01C0
030300
00FC00
ENDCHAR
STARTCHAR D
ENCODING 68
SWIDTH 700 0
DWIDTH 28 0
BBX 20 27 4 0
VVECTOR 14 33
SWIDTH1 0 -1000
DWIDTH1 0 -40
BITMAP 
FFE000
381C00
380700
380380
380180
3801C0
3800C0
3800E0
380060
380070
380070
380070
380070
380070
380070
380070
380070
380070
380070
380060
3800E0
3800C0
3801C0
380380
380700
381C00
FFE000
ENDCHAR
STARTCHAR E
ENCODING 69
SWIDTH 600 0
DWIDTH 24 0
BBX 18 27 3 0
VVECTOR 12 33
SWIDTH1 0 -1000
DWIDTH1 0 -40
BITMAP 
FFFF00
3C0F80
380380
380180
380080
380080
380000
380000
380000
380400
380400
380C00
3FFC00
380C00
380400
380400
380000
380000
380000
380000
380040
380040
3800C0
3800C0
3801C0
3C07C0
FFFF80
ENDCHAR
STARTCHAR F
ENCODING 70
SWIDTH 600 0
DWIDTH 24 0
BBX 17 27 3 0
VVECTOR 12 33
SWIDTH1 0 -1000
DWIDTH1 0 -40
BITMAP 
FFFF00
3C0F80
380380
380180
380080
380080
380000
380000
380000
380400
380400
380C00
3FFC00
380C00
380400
380400
380000
380000
380000
380000
380000
380000
380000
380000
380000
3C0000
FF0000
ENDCHAR
STARTCHAR G
ENCODING 71
SWIDTH 600 0
DWIDTH 24 0
BBX 21 27 2 0
VVECTOR 13 33
SWIDTH1 0 -1000
DWIDTH1 0 -40
BITMAP 
00FF00
0303C0
0E01E0
1C00E0
3C0060
380020
780000
780000
700000
F00000
F00000
F00000
F00000
F00000
F003F8
F000E0
F000E0
F000E0
7000E0
7800E0
7800E0
3800E0
3C00E0
1C00C0
0E0180
030300
00FC00
ENDCHAR
STARTCHAR H
ENCODING 72
SWIDTH 700 0
DWIDTH 28 0
BBX 22 27 3 0
VVECTOR 14 33
SWIDTH1 0 -1000
DWIDTH1 0 -40
BITMAP 
FE01FC
380070
380070
380070
380070
380070
380070
380070
380070
380070
380070
380070
3FFFF0
380070
380070
380070
380070
380070
380070
380070
380070
380070
380070
380070
380070
380070
FE01FC
ENDCHAR
STARTCHAR I
ENCODING 73
SWIDTH 400 0
DWIDTH 16 0
BBX 7 27 4 0
VVECTOR 8 33
SWIDTH1 0 -1000
DWIDTH1 0 -40
BITMAP 
FE
38
38
38
38
38
38
38
38
38
38
38
38
38
38
38
38
38
38
38
38
38
38
38
38
38
FE
ENDCHAR
STARTCHAR J
ENCODING 74
SWIDTH 500 0
DWIDTH 20 0
BBX 14 34 3 -7
VVECTOR 10 33
SWIDTH1 0 -1000
DWIDTH1 0 -40
BITMAP 
01FC
0070
0070
0070
0070
0070
0070
0070
0070
0070
0070
0070
0070
0070
0070
0070
0070
0070
0070
0070
0070
0070
0070
0070
0070
0070
0070
0070
0070
4060
E060
E0C0
F180
7E00
ENDCHAR
STARTCHAR K
ENCODING 75
SWIDTH 700 0
DWIDTH 28 0
BBX 21 27 3 0
VVECTOR 14 33
SWIDTH1 0 -1000
DWIDTH1 0 -40
BITMAP 
FF03F8
3800C0
380180
380300
380600
380C00
381800
383000
386000
38C000
39C000
3BC000
3EE000
3CE000
387000
387000
383800
383800
381C00
381C00
380E00
380E00
380700
380700
380380
3803C0
FF0FF8
ENDCHAR
STARTCHAR L
ENCODING 76
SWIDTH 600 0
DWIDTH 24 0
BBX 18 27 3 0
VVECTOR 12 33
SWIDTH1 0 -1000
DWIDTH1 0 -40
BITMAP 
FE0000
380000
380000
380000
380000
380000
380000
380000
380000
380000
380000
380000
380000
380000
380000
380000
380000
380000
380000
380000
380040
380040
3800C0
3800C0
3801C0
3C07C0
FFFFC0
ENDCHAR
STARTCHAR M
ENCODING 77
SWIDTH 800 0
DWIDTH 32 0
BBX 26 27 3 0
VVECTOR 16 33
SWIDTH1 0 -1000
DWIDTH1 0 -40
BITMAP 
FC0007C0
3C000F00
3E000F00
2E001700
2E001700
27001700
27002700
23802700
23802700
23804700
21C04700
21C04700
21C08700
20E08700
20E08700
20E10700
20710700
20710700
20720700
203A0700
203A0700
203C0700
201C0700
201C0700
20180700
20080700
F8081FC0
ENDCHAR
STARTCHAR N
ENCODING 78
SWIDTH 700 0
DWIDTH 28 0
BBX 22 27 4 0
VVECTOR 15 33
SWIDTH1 0 -1000
DWIDTH1 0 -40
BITMAP 
F001FC
380020
3C0020
3C0020
3E0020
2F0020
2F0020
278020
23C020
23C020
21E020
20F020
20F020
207820
203C20
203C20
201E20
200F20
200F20
2007A0
2003E0
2003E0
2001E0
2000E0
2000E0
200060
FC0020
ENDCHAR
STARTCHAR O
ENCODING 79
SWIDTH 700 0
DWIDTH 28 0
BBX 21 27 3 0
VVECTOR 14 33
SWIDTH1 0 -1000
DWIDTH1 0 -40
BITMAP 
00F800
030600
0E0380
1C01C0
3800E0
3800E0
700070
700070
E00038
E00038
E00038
E00038
E00038
E00038
E00038
E00038
E00038
E00038
E00038
700070
700070
3800E0
3800E0
1C01C0
0E0380
030600
00F800
ENDCHAR
STARTCHAR P
ENCODING 80
SWIDTH 600 0
DWIDTH 24 0
BBX 19 27 2 0
VVECTOR 12 33
SWIDTH1 0 -1000
DWIDTH1 0 -40
BITMAP 
FFF800
380600
380380
3801C0
3801C0
3800E0
3800E0
3800E0
3800E0
3800E0
3801E0
3801C0
3803C0
3C0F80
3BFF00
38FC00
380000
380000
380000
380000
380000
380000
380000
380000
380000
380000
FE0000
ENDCHAR
STARTCHAR Q
ENCODING 81
SWIDTH 700 0
DWIDTH 28 0
BBX 21 34 3 -7
VVECTOR 14 33
SWIDTH1 0 -1000
DWIDTH1 0 -40
BITMAP 
00F800
030600
0E0380
1C01C0
3800E0
3800E0
700070
700070
E00038
E00038
E00038
E00038
E00038
E00038
E00038
E00038
E00038
E00038
E00038
700070
700070
3800E0
3800E0
1C01C0
0E0380
030600
00F800
007000
007000
007000
003800
003C20
001FC0
000780
ENDCHAR
STARTCHAR R
ENCODING 82
SWIDTH 600 0
DWIDTH 24 0
BBX 22 27 1 0
VVECTOR 12 33
SWIDTH1 0 -1000
DWIDTH1 0 -40
BITMAP 
FFF800
1C0600
1C0300
1C0180
1C0180
1C01C0
1C01C0
1C01C0
1C01C0
1C0180
1C0380
1C0700
1FFC00
1C3800
1C1C00
1C0E00
1C0E00
1C0700
1C0700
1C0380
1C0380
1C01C0
1C01C0
1C00E0
1C00E0
1C0070
FF807C
ENDCHAR
STARTCHAR S
ENCODING 83
SWIDTH 500 0
DWIDTH 20 0
BBX 16 27 2 0
VVECTOR 10 33
SWIDTH1 0 -1000
DWIDTH1 0 -40
BITMAP 
07F8
183E
300E
6006
6006
E002
E000
E000
F000
7800
7E00
3F00
0FC0
03F0
01F8
007C
001E
000E
000F
0007
8007
8007
C006
E006
F00C
7C18
1FE0
ENDCHAR
STARTCHAR T
ENCODING 84
SWIDTH 600 0
DWIDTH 24 0
BBX 20 28 2 0
VVECTOR 12 33
SWIDTH1 0 -1000
DWIDTH1 0 -40
BITMAP 
800010
FFFFF0
E0E070
C0E030
80E010
80E010
00E000
00E000
00E000
00E000
00E000
00E000
00E000
00E000
00E000
00E000
00E000
00E000
00E000
00E000
00E000
00E000
00E000
00E000
00E000
00E000
01F000
07FC00
ENDCHAR
STARTCHAR U
ENCODING 85
SWIDTH 700 0
DWIDTH 28 0
BBX 23 27 3 0
VVECTOR 15 33
SWIDTH1 0 -1000
DWIDTH1 0 -40
BITMAP 
FF803E
3E0008
1C0008
1C0008
1C0008
1C0008
1C0008
1C0008
1C0008
1C0008
1C0008
1C0008
1C0008
1C0008
1C0008
1C0008
1C0008
1C0008
1C0008
1C0008
1C0008
1E0008
1E0010
0F0010
0F8020
07E0C0
01FF00
ENDCHAR
STARTCHAR V
ENCODING 86
SWIDTH 700 0
DWIDTH 28 0
BBX 23 27 3 0
VVECTOR 15 33
SWIDTH1 0 -1000
DWIDTH1 0 -40
BITMAP 
FE007E
380018
380010
1C0010
1C0020
1C0020
0E0020
0E0040
0E0040
070040
070080
070080
038080
038100
038100
01C100
01C200
01C200
00E200
00E400
00E400
007400
007800
007800
003800
003000
001000
ENDCHAR
STARTCHAR W
ENCODING 87
SWIDTH 875 0
DWIDTH 35 0
BBX 29 27 3 0
VVECTOR 18 33
SWIDTH1 0 -1000
DWIDTH1 0 -40
BITMAP 
FE7F7CF8
381C1020
381C1020
1C0C2040
1C0E2040
1C0E2040
1C0E4080
0E074080
0E074080
0E078100
07038100
07038100
07038200
07058200
0385C200
0385C400
0389C400
0188C400
01C8E800
01D0E800
01D0E800
00F07000
00E07000
00E07000
00402000
00402000
00402000
ENDCHAR
STARTCHAR X
ENCODING 88
SWIDTH 600 0
DWIDTH 24 0
BBX 19 27 2 0
VVECTOR 12 33
SWIDTH1 0 -1000
DWIDTH1 0 -40
BITMAP 
FE0FC0
380300
380200
1C0400
1C0400
0E0800
0E0800
071000
071000
03A000
03A000
01C000
01C000
00E000
00E000
017000
017000
023800
023800
041C00
041C00
080E00
080E00
100700
100700
300380
FC0FE0
ENDCHAR
STARTCHAR Y
ENCODING 89
SWIDTH 600 0
DWIDTH 24 0
BBX 21 27 1 0
VVECTOR 12 33
SWIDTH1 0 -1000
DWIDTH1 0 -40
BITMAP 
FF01F8
3C0060
1C0040
1E0080
0E0080
0F0100
070100
078200
038200
03C400
01C400
01E800
00F800
00F000
007000
007000
007000
007000
007000
007000
007000
007000
007000
007000
007000
007000
03FE00
ENDCHAR
STARTCHAR Z
ENCODING 90
SWIDTH 500 0
DWIDTH 20 0
BBX 17 28 1 0
VVECTOR 10 33
SWIDTH1 0 -1000
DWIDTH1 0 -40
BITMAP 
080000
1FFF00
380E00
300E00
601C00
401C00
003800
003800
007000
007000
00E000
00E000
01C000
01C000
038000
038000
070000
070000
0E0000
0E0000
1C0000
1C0000
380080
380080
700080
700180
E00380
FFFF80
ENDCHAR
STARTCHAR bracketleft
ENCODING 91
SWIDTH 300 0
DWIDTH 12 0
BBX 5 33 4 -3
VVECTOR 7 33
SWIDTH1 0 -1000
DWIDTH1 0 -40
BITMAP 
F8
E0
E0
E0
E0
E0
E0
E0
E0
E0
E0
E0
E0
E0
E0
E0
E0
E0
E0
E0
E0
E0
E0
E0
E0
E0
E0
E0
E0
E0
E0
E0
F8
ENDCHAR
STARTCHAR backslash
ENCODING 92
SWIDTH 500 0
DWIDTH 20 0
BBX 14 28 3 0
VVECTOR 10 33
SWIDTH1 0 -1000
DWIDTH1 0 -40
BITMAP 
8000
8000
4000
4000
2000
2000
1000
1000
0800
0800
0400
0400
0200
0200
0100
0100
0080
0080
0040
0040
0020
0020
0010
0010
0008
0008
0004
0004
ENDCHAR
STARTCHAR bracketright
ENCODING 93
SWIDTH 300 0
DWIDTH 12 0
BBX 5 33 3 -3
VVECTOR 6 33
SWIDTH1 0 -1000
DWIDTH1 0 -40
BITMAP 
F8
38
38
38
38
38
38
38
38
38
38
38
38
38
38
38
38
38
38
38
38
38
38
38
38
38
38
38
38
38
38
38
F8
ENDCHAR
STARTCHAR asciicircum
ENCODING 94
SWIDTH 400 0
DWIDTH 16 0
BBX 7 4 4 23
VVECTOR 8 33
SWIDTH1 0 -1000
DWIDTH1 0 -40
BITMAP 
10
28
44
82
ENDCHAR
STARTCHAR underscore
ENCODING 95
SWIDTH 600 0
DWIDTH 24 0
BBX 24 1 0 0
VVECTOR 12 33
SWIDTH1 0 -1000
DWIDTH1 0 -40
BITMAP 
FFFFFF
ENDCHAR
STARTCHAR grave
ENCODING 96
SWIDTH 300 0
DWIDTH 12 0
BBX 4 4 4 24
VVECTOR 6 33
SWIDTH1 0 -1000
DWIDTH1 0 -40
BITMAP 
80
40
20
10
ENDCHAR
STARTCHAR a
ENCODING 97
SWIDTH 500 0
DWIDTH 20 0
BBX 17 20 2 0
VVECTOR 11 33
SWIDTH1 0 -1000
DWIDTH1 0 -40
BITMAP 
07F000
187800
303800
603800
E03800
E03800
C07800
00F800
033800
063800
1C3800
383800
703800
703800
E03800
E07800
E0F800
F1B880
7F3F00
3C1E00
ENDCHAR
STARTCHAR b
ENCODING 98
SWIDTH 600 0
DWIDTH 24 0
BBX 17 27 3 0
VVECTOR 12 33
SWIDTH1 0 -1000
DWIDTH1 0 -40
BITMAP 
300000
700000
F00000
700000
700000
700000
700000
70F000
73FC00
761E00
7C0F00
780700
700780
700380
700380
700380
700380
700380
700380
700380
700380
700380
700300
780700
7C0600
660C00
41F000
ENDCHAR
STARTCHAR c
ENCODING 99
SWIDTH 500 0
DWIDTH 20 0
BBX 14 20 2 0
VVECTOR 9 33
SWIDTH1 0 -1000
DWIDTH1 0 -40
BITMAP 
03F8
0E3C
181C
300C
7004
6000
E000
E000
E000
E000
E000
E000
E000
F000
7000
7800
3C04
1F0C
0FF8
03E0
ENDCHAR
STARTCHAR d
ENCODING 100
SWIDTH 600 0
DWIDTH 24 0
BBX 18 27 3 0
VVECTOR 12 33
SWIDTH1 0 -1000
DWIDTH1 0 -40
BITMAP 
000100
000300
000700
000F00
000700
000700
000700
03C700
0C3700
180F00
300700
700700
600700
E00700
E00700
E00700
E00700
E00700
E00700
E00700
E00700
E00700
700740
700F80
3C1F00
1FF600
07C400
ENDCHAR
STARTCHAR e
ENCODING 101
SWIDTH 500 0
DWIDTH 20 0
BBX 15 20 2 0
VVECTOR 10 33
SWIDTH1 0 -1000
DWIDTH1 0 -40
BITMAP 
07C0
1C30
3818
300C
700C
600E
E00E
E01E
FFFE
E000
E000
E000
E000
E000
F002
7004
780C
3C38
1FF0
07C0
ENDCHAR
STARTCHAR f
ENCODING 102
SWIDTH 400 0
DWIDTH 16 0
BBX 12 27 2 0
VVECTOR 8 33
SWIDTH1 0 -1000
DWIDTH1 0 -40
BITMAP 
07E0
0CF0
1870
1820
3800
3800
3800
7F00
FF00
3800
3800
3800
3800
3800
3800
3800
3800
3800
3800
3800
3800
3800
3800
3800
3800
3800
FE00
ENDCHAR
STARTCHAR g
ENCODING 103
SWIDTH 500 0
DWIDTH 20 0
BBX 16 26 2 -6
VVECTOR 10 33
SWIDTH1 0 -1000
DWIDTH1 0 -40
BITMAP 
0780
187C
3030
3030
7038
7038
7038
7038
7038
3030
3030
1860
0F80
1800
3000
7FF0
3FFC
1FFE
300F
6007
E003
E003
E002
7004
3C18
0FE0
ENDCHAR
STARTCHAR h
ENCODING 104
SWIDTH 600 0
DWIDTH 24 0
BBX 19 27 3 0
VVECTOR 13 33
SWIDTH1 0 -1000
DWIDTH1 0 -40
BITMAP 
080000
180000
380000
780000
380000
380000
380000
387800
39FE00
3B0F00
3C0700
380380
380380
380380
380380
380380
380380
380380
380380
380380
380380
380380
380380
380380
380380
380380
FE0FE0
ENDCHAR
STARTCHAR i
ENCODING 105
SWIDTH 400 0
DWIDTH 16 0
BBX 7 27 4 0
VVECTOR 8 33
SWIDTH1 0 -1000
DWIDTH1 0 -40
BITMAP 
10
38
38
38
10
00
00
08
18
38
78
38
38
38
38
38
38
38
38
38
38
38
38
38
38
38
FE
ENDCHAR
STARTCHAR j
ENCODING 106
SWIDTH 300 0
DWIDTH 12 0
BBX 6 34 3 -7
VVECTOR 6 33
SWIDTH1 0 -1000
DWIDTH1 0 -40
BITMAP 
08
1C
1C
1C
08
00
00
04
0C
1C
3C
1C
1C
1C
1C
1C
1C
1C
1C
1C
1C
1C
1C
1C
1C
1C
1C
1C
1C
1C
18
10
20
C0
ENDCHAR
STARTCHAR k
ENCODING 107
SWIDTH 600 0
DWIDTH 24 0
BBX 18 27 3 0
VVECTOR 12 33
SWIDTH1 0 -1000
DWIDTH1 0 -40
BITMAP 
080000
180000
380000
780000
380000
380000
380000
381F80
380400
380800
381000
382000
384000
388000
390000
3A0000
3E0000
3F0000
3B8000
39C000
38E000
387000
383800
381C00
380E00
380700
FE1FC0
ENDCHAR
STARTCHAR l
ENCODING 108
SWIDTH 400 0
DWIDTH 16 0
BBX 7 27 4 0
VVECTOR 8 33
SWIDTH1 0 -1000
DWIDTH1 0 -40
BITMAP 
08
18
38
78
38
38
38
38
38
38
38
38
38
38
38
38
38
38
38
38
38
38
38
38
38
38
FE
ENDCHAR
STARTCHAR m
ENCODING 109
SWIDTH 800 0
DWIDTH 32 0
BBX 29 20 1 0
VVECTOR 16 33
SWIDTH1 0 -1000
DWIDTH1 0 -40
BITMAP 
08701E00
19FC7F80
3B0EC1C0
7C0700C0
380700E0
380700E0
380700E0
380700E0
380700E0
380700E0
380700E0
380700E0
380700E0
380700E0
380700E0
380700E0
380700E0
380700E0
380700E0
FE1FC3F8
ENDCHAR
STARTCHAR n
ENCODING 110
SWIDTH 600 0
DWIDTH 24 0
BBX 19 20 2 0
VVECTOR 12 33
SWIDTH1 0 -1000
DWIDTH1 0 -40
BITMAP 
087800
19FE00
3B0F00
7C0700
380380
380380
380380
380380
380380
380380
380380
380380
380380
380380
380380
380380
380380
380380
380380
FE0FE0
ENDCHAR
STARTCHAR o
ENCODING 111
SWIDTH 500 0
DWIDTH 20 0
BBX 16 20 2 0
VVECTOR 10 33
SWIDTH1 0 -1000
DWIDTH1 0 -40
BITMAP 
03C0
0C30
1818
300C
700E
6006
E007
E007
E007
E007
E007
E007
E007
E007
6006
700E
300C
1818
0C30
03C0
ENDCHAR
STARTCHAR p
ENCODING 112
SWIDTH 600 0
DWIDTH 24 0
BBX 18 26 2 -6
VVECTOR 11 33
SWIDTH1 0 -1000
DWIDTH1 0 -40
BITMAP 
087000
19FC00
3B1E00
7C0700
380300
380380
380180
3801C0
3801C0
3801C0
3801C0
3801C0
3801C0
380180
380180
380300
380300
3C0600
3B0C00
38F000
380000
380000
380000
380000
380000
FE0000
ENDCHAR
STARTCHAR q
ENCODING 113
SWIDTH 600 0
DWIDTH 24 0
BBX 18 26 3 -6
VVECTOR 12 33
SWIDTH1 0 -1000
DWIDTH1 0 -40
BITMAP 
03C100
0C3300
180F00
300700
300700
600700
600700
E00700
E00700
E00700
E00700
E00700
E00700
600700
700700
300700
380F00
1E3700
0FE700
038700
000700
000700
000700
000700
000700
001FC0
ENDCHAR
STARTCHAR r
ENCODING 114
SWIDTH 500 0
DWIDTH 20 0
BBX 14 20 3 0
VVECTOR 10 33
SWIDTH1 0 -1000
DWIDTH1 0 -40
BITMAP 
08F8
193C
3A1C
7C18
3800
3800
3800
3800
3800
3800
3800
3800
3800
3800
3800
3800
3800
3800
3800
FE00
ENDCHAR
STARTCHAR s
ENCODING 115
SWIDTH 500 0
DWIDTH 20 0
BBX 12 20 4 0
VVECTOR 10 33
SWIDTH1 0 -1000
DWIDTH1 0 -40
BITMAP 
0FC0
30E0
6060
4020
C000
E000
7000
7C00
3E00
0F80
07C0
01E0
00E0
0070
8030
8030
C020
E060
78C0
3F00
ENDCHAR
STARTCHAR t
ENCODING 116
SWIDTH 400 0
DWIDTH 16 0
BBX 10 24 3 0
VVECTOR 8 33
SWIDTH1 0 -1000
DWIDTH1 0 -40
BITMAP 
0800
0800
1800
3800
7F00
FF00
3800
3800
3800
3800
3800
3800
3800
3800
3800
3800
3800
3800
3800
3800
3800
3840
1C80
0F00
ENDCHAR
STARTCHAR u
ENCODING 117
SWIDTH 600 0
DWIDTH 24 0
BBX 18 20 2 0
VVECTOR 11 33
SWIDTH1 0 -1000
DWIDTH1 0 -40
BITMAP 
F80F80
380380
380380
380380
380380
380380
380380
380380
380380
380380
380380
380380
380380
380380
380380
380380
1C07C0
1E1B80
0FF300
03C200
ENDCHAR
STARTCHAR v
ENCODING 118
SWIDTH 500 0
DWIDTH 20 0
BBX 18 20 1 0
VVECTOR 10 33
SWIDTH1 0 -1000
DWIDTH1 0 -40
BITMAP 
FE07C0
380100
380100
1C0200
1C0200
1C0200
0E0400
0E0400
070400
070800
070800
038800
039000
01D000
01D000
01E000
00E000
00E000
004000
004000
ENDCHAR
STARTCHAR w
ENCODING 119
SWIDTH 700 0
DWIDTH 28 0
BBX 26 20 1 0
VVECTOR 14 33
SWIDTH1 0 -1000
DWIDTH1 0 -40
BITMAP 
FEFE07C0
38380100
38380100
1C1C0200
1C1C0200
1C1C0200
0E0E0400
0E0E0400
07070400
07070800
07070800
038B8800
038B9000
01D1D000
01D1D000
01D1E000
00E0E000
00E0E000
00404000
00404000
ENDCHAR
STARTCHAR x
ENCODING 120
SWIDTH 600 0
DWIDTH 24 0
BBX 19 20 2 0
VVECTOR 12 33
SWIDTH1 0 -1000
DWIDTH1 0 -40
BITMAP 
FF07E0
3C0100
1C0200
0E0400
0F0400
070800
039000
03D000
01E000
00E000
00F000
017000
013800
023C00
041C00
040E00
080F00
100700
300380
FC0FE0
ENDCHAR
STARTCHAR y
ENCODING 121
SWIDTH 600 0
DWIDTH 24 0
BBX 22 26 1 -6
VVECTOR 12 33
SWIDTH1 0 -1000
DWIDTH1 0 -40
BITMAP 
FE007C
380010
1C0020
1C0020
0E0040
0E0040
070080
070080
038100
038100
01C200
01C200
00E400
00E400
007800
007800
003000
003000
002000
002000
004000
004000
008000
078000
0F0000
060000
ENDCHAR
STARTCHAR z
ENCODING 122
SWIDTH 500 0
DWIDTH 20 0
BBX 15 21 2 0
VVECTOR 10 33
SWIDTH1 0 -1000
DWIDTH1 0 -40
BITMAP 
2000
3FFC
7FFC
6038
C070
8070
00E0
01C0
01C0
0380
0300
0700
0E00
0E00
1C00
1800
3802
7002
7006
E00E
FFFE
ENDCHAR
STARTCHAR braceleft
ENCODING 123
SWIDTH 400 0
DWIDTH 16 0
BBX 8 32 4 -3
VVECTOR 8 33
SWIDTH1 0 -1000
DWIDTH1 0 -40
BITMAP 
03
04
08
18
10
30
30
30
30
30
30
30
30
30
20
C0
20
30
30
30
30
30
30
30
30
30
30
10
18
08
04
03
ENDCHAR
STARTCHAR bar
ENCODING 124
SWIDTH 200 0
DWIDTH 8 0
BBX 2 32 3 -3
VVECTOR 4 33
SWIDTH1 0 -1000
DWIDTH1 0 -40
BITMAP 
C0
C0
C0
C0
C0
C0
C0
C0
C0
C0
C0
C0
C0
C0
C0
C0
C0
C0
C0
C0
C0
C0
C0
C0
C0
C0
C0
C0
C0
C0
C0
C0
ENDCHAR
STARTCHAR braceright
ENCODING 125
SWIDTH 400 0
DWIDTH 16 0
BBX 8 32 4 -3
VVECTOR 8 33
SWIDTH1 0 -1000
DWIDTH1 0 -40
BITMAP 
C0
20
10
18
08
0C
0C
0C
0C
0C
0C
0C
0C
0C
04
03
04
0C
0C
0C
0C
0C
0C
0C
0C
0C
0C
08
18
10
20
C0
ENDCHAR
STARTCHAR asciitilde
ENCODING 126
SWIDTH 400 0
DWIDTH 16 0
BBX 11 3 2 24
VVECTOR 8 33
SWIDTH1 0 -1000
DWIDTH1 0 -40
BITMAP 
3820
4440
8380
ENDCHAR
STARTCHAR char7F
ENCODING 127
SWIDTH 0 0
DWIDTH 0 0
BBX 0 0 0 -7
VVECTOR 0 -7
SWIDTH1 0 0
DWIDTH1 0 0
BITMAP 
ENDCHAR
STARTCHAR Adieresis
ENCODING 128
SWIDTH 800 0
DWIDTH 32 0
BBX 22 30 5 0
VVECTOR 16 33
SWIDTH1 0 -1000
DWIDTH1 0 -40
BITMAP 
018600
018600
000000
003000
003000
003800
007800
007800
005C00
009C00
009C00
008E00
010E00
010E00
010700
020700
020700
020380
040380
040380
07FFC0
0801C0
0801C0
0800E0
1000E0
1000E0
100070
200070
200070
F801FC
ENDCHAR
STARTCHAR Aring
ENCODING 129
SWIDTH 800 0
DWIDTH 32 0
BBX 22 33 5 0
VVECTOR 16 33
SWIDTH1 0 -1000
DWIDTH1 0 -40
BITMAP 
007000
008800
008800
008800
007000
000000
000000
003000
003000
007800
007800
005C00
009C00
009C00
008E00
010E00
010E00
010700
020700
020700
020380
040380
040380
07FFC0
0801C0
0801C0
0800E0
1000E0
1000E0
100070
200070
200070
F801FC
ENDCHAR
STARTCHAR Ccedilla
ENCODING 130
SWIDTH 600 0
DWIDTH 24 0
BBX 19 33 2 -6
VVECTOR 12 33
SWIDTH1 0 -1000
DWIDTH1 0 -40
BITMAP 
00FF00
0303C0
0E01E0
1C00E0
3C0060
380020
780000
780000
700000
F00000
F00000
F00000
F00000
F00000
F00000
F00000
F00000
F00000
700000
780020
780060
380060
3C00E0
1C00E0
0E01C0
030300
00FC00
003000
003800
000400
000400
000800
003000
ENDCHAR
STARTCHAR Eacute
ENCODING 131
SWIDTH 600 0
DWIDTH 24 0
BBX 18 33 2 0
VVECTOR 11 33
SWIDTH1 0 -1000
DWIDTH1 0 -40
BITMAP 
001000
002000
004000
008000
000000
000000
FFFF00
3C0F80
380380
380180
380080
380080
380000
380000
380000
380400
380400
380C00
3FFC00
380C00
380400
380400
380000
380000
380000
380000
380040
380040
3800C0
3800C0
3801C0
3C07C0
FFFF80
ENDCHAR
STARTCHAR Ntilde
ENCODING 132
SWIDTH 700 0
DWIDTH 28 0
BBX 22 33 4 0
VVECTOR 15 33
SWIDTH1 0 -1000
DWIDTH1 0 -40
BITMAP 
03C080
042100
081E00
000000
000000
000000
F001FC
380020
3C0020
3C0020
3E0020
2F0020
2F0020
278020
23C020
23C020
21E020
20F020
20F020
207820
203C20
203C20
201E20
200F20
200F20
2007A0
2003E0
2003E0
2001E0
2000E0
2000E0
200060
FC0020
ENDCHAR
STARTCHAR Odieresis
ENCODING 133
SWIDTH 700 0
DWIDTH 28 0
BBX 21 31 3 0
VVECTOR 14 33
SWIDTH1 0 -1000
DWIDTH1 0 -40
BITMAP 
030600
030600
000000
000000
00F800
030600
0E0380
1C01C0
3800E0
3800E0
700070
700070
E00038
E00038
E00038
E00038
E00038
E00038
E00038
E00038
E00038
E00038
E00038
700070
700070
3800E0
3800E0
1C01C0
0E0380
030600
00F800
ENDCHAR
STARTCHAR Udieresis
ENCODING 134
SWIDTH 700 0
DWIDTH 28 0
BBX 23 31 2 0
VVECTOR 14 33
SWIDTH1 0 -1000
DWIDTH1 0 -40
BITMAP 
00C180
00C180
000000
000000
FF803E
3E0008
1C0008
1C0008
1C0008
1C0008
1C0008
1C0008
1C0008
1C0008
1C0008
1C0008
1C0008
1C0008
1C0008
1C0008
1C0008
1C0008
1C0008
1C0008
1C0008
1E0008
1E0010
0F0010
0F8020
07E0C0
01FF00
ENDCHAR
STARTCHAR aacute
ENCODING 135
SWIDTH 500 0
DWIDTH 20 0
BBX 18 26 1 0
VVECTOR 10 33
SWIDTH1 0 -1000
DWIDTH1 0 -40
BITMAP 
001000
002000
004000
008000
000000
000000
03F800
0C3C00
181C00
301C00
701C00
701C00
603C00
007C00
019C00
031C00
0E1C00
1C1C00
381C00
781C00
701C00
F03C00
F07C00
F8DC40
7F9F80
3E0F00
ENDCHAR
STARTCHAR agrave
ENCODING 136
SWIDTH 500 0
DWIDTH 20 0
BBX 17 26 2 0
VVECTOR 11 33
SWIDTH1 0 -1000
DWIDTH1 0 -40
BITMAP 
040000
020000
010000
008000
000000
000000
07F000
187800
303800
603800
E03800
E03800
C07800
00F800
033800
063800
1C3800
383800
703800
703800
E03800
E07800
E0F800
F1B880
7F3F00
3C1E00
ENDCHAR
STARTCHAR acircumflex
ENCODING 137
SWIDTH 500 0
DWIDTH 20 0
BBX 17 26 2 0
VVECTOR 11 33
SWIDTH1 0 -1000
DWIDTH1 0 -40
BITMAP 
010000
028000
044000
082000
000000
000000
07F000
187800
303800
603800
E03800
E03800
C07800
00F800
033800
063800
1C3800
383800
703800
703800
E03800
E07800
E0F800
F1B880
7F3F00
3C1E00
ENDCHAR
STARTCHAR adieresis
ENCODING 138
SWIDTH 500 0
DWIDTH 20 0
BBX 17 25 2 0
VVECTOR 11 33
SWIDTH1 0 -1000
DWIDTH1 0 -40
BITMAP 
0C3000
0C3000
000000
000000
000000
07F000
187800
303800
603800
E03800
E03800
C07800
00F800
033800
063800
1C3800
383800
703800
703800
E03800
E07800
E0F800
F1B880
7F3F00
3C1E00
ENDCHAR
STARTCHAR atilde
ENCODING 139
SWIDTH 500 0
DWIDTH 20 0
BBX 17 25 2 0
VVECTOR 11 33
SWIDTH1 0 -1000
DWIDTH1 0 -40
BITMAP 
0E0800
111000
20E000
000000
000000
07F000
187800
303800
603800
E03800
E03800
C07800
00F800
033800
063800
1C3800
383800
703800
703800
E03800
E07800
E0F800
F1B880
7F3F00
3C1E00
ENDCHAR
STARTCHAR aring
ENCODING 140
SWIDTH 500 0
DWIDTH 20 0
BBX 17 26 2 0
VVECTOR 11 33
SWIDTH1 0 -1000
DWIDTH1 0 -40
BITMAP 
018000
024000
024000
018000
000000
000000
07F000
187800
303800
603800
E03800
E03800
C07800
00F800
033800
063800
1C3800
383800
703800
703800
E03800
E07800
E0F800
F1B880
7F3F00
3C1E00
ENDCHAR
STARTCHAR ccedilla
ENCODING 141
SWIDTH 500 0
DWIDTH 20 0
BBX 14 26 2 -6
VVECTOR 9 33
SWIDTH1 0 -1000
DWIDTH1 0 -40
BITMAP 
03F8
0E3C
181C
300C
7004
6000
E000
E000
E000
E000
E000
E000
E000
F000
7000
7800
3C04
1F0C
0FF8
03E0
00C0
00E0
0020
0020
0040
0080
ENDCHAR
STARTCHAR eacute
ENCODING 142
SWIDTH 500 0
DWIDTH 20 0
BBX 15 26 2 0
VVECTOR 10 33
SWIDTH1 0 -1000
DWIDTH1 0 -40
BITMAP 
0020
0040
0080
0100
0000
0000
07C0
1C30
3818
300C
700C
600E
E00E
E01E
FFFE
E000
E000
E000
E000
E000
F002
7004
780C
3C38
1FF0
07C0
ENDCHAR
STARTCHAR egrave
ENCODING 143
SWIDTH 500 0
DWIDTH 20 0
BBX 15 26 2 0
VVECTOR 10 33
SWIDTH1 0 -1000
DWIDTH1 0 -40
BITMAP 
0800
0400
0200
0100
0000
0000
07C0
1C30
3818
300C
700C
600E
E00E
E01E
FFFE
E000
E000
E000
E000
E000
F002
7004
780C
3C38
1FF0
07C0
ENDCHAR
STARTCHAR ecircumflex
ENCODING 144
SWIDTH 500 0
DWIDTH 20 0
BBX 15 26 2 0
VVECTOR 10 33
SWIDTH1 0 -1000
DWIDTH1 0 -40
BITMAP 
0100
0280
0440
0820
0000
0000
07C0
1C30
3818
300C
700C
600E
E00E
E01E
FFFE
E000
E000
E000
E000
E000
F002
7004
780C
3C38
1FF0
07C0
ENDCHAR
STARTCHAR edieresis
ENCODING 145
SWIDTH 500 0
DWIDTH 20 0
BBX 15 24 2 0
VVECTOR 10 33
SWIDTH1 0 -1000
DWIDTH1 0 -40
BITMAP 
0C30
0C30
0000
0000
07C0
1C30
3818
300C
700C
600E
E00E
E01E
FFFE
E000
E000
E000
E000
E000
F002
7004
780C
3C38
1FF0
07C0
ENDCHAR
STARTCHAR iacute
ENCODING 146
SWIDTH 400 0
DWIDTH 16 0
BBX 7 26 4 0
VVECTOR 8 33
SWIDTH1 0 -1000
DWIDTH1 0 -40
BITMAP 
08
10
20
40
00
00
08
18
38
78
38
38
38
38
38
38
38
38
38
38
38
38
38
38
38
FE
ENDCHAR
STARTCHAR igrave
ENCODING 147
SWIDTH 400 0
DWIDTH 16 0
BBX 7 26 4 0
VVECTOR 8 33
SWIDTH1 0 -1000
DWIDTH1 0 -40
BITMAP 
40
20
10
08
00
00
08
18
38
78
38
38
38
38
38
38
38
38
38
38
38
38
38
38
38
FE
ENDCHAR
STARTCHAR icircumflex
ENCODING 148
SWIDTH 400 0
DWIDTH 16 0
BBX 7 26 4 0
VVECTOR 8 33
SWIDTH1 0 -1000
DWIDTH1 0 -40
BITMAP 
10
28
44
82
00
00
08
18
38
78
38
38
38
38
38
38
38
38
38
38
38
38
38
38
38
FE
ENDCHAR
STARTCHAR idieresis
ENCODING 149
SWIDTH 400 0
DWIDTH 16 0
BBX 9 24 3 0
VVECTOR 8 33
SWIDTH1 0 -1000
DWIDTH1 0 -40
BITMAP 
6300
6300
0000
0000
0400
0C00
1C00
3C00
1C00
1C00
1C00
1C00
1C00
1C00
1C00
1C00
1C00
1C00
1C00
1C00
1C00
1C00
1C00
FF80
ENDCHAR
STARTCHAR ntilde
ENCODING 150
SWIDTH 600 0
DWIDTH 24 0
BBX 19 25 2 0
VVECTOR 12 33
SWIDTH1 0 -1000
DWIDTH1 0 -40
BITMAP 
038200
044400
083800
000000
000000
087800
19FE00
3B0F00
7C0700
380380
380380
380380
380380
380380
380380
380380
380380
380380
380380
380380
380380
380380
380380
380380
FE0FE0
ENDCHAR
STARTCHAR oacute
ENCODING 151
SWIDTH 500 0
DWIDTH 20 0
BBX 16 26 2 0
VVECTOR 10 33
SWIDTH1 0 -1000
DWIDTH1 0 -40
BITMAP 
0020
0040
0080
0100
0000
0000
03C0
0C30
1818
300C
700E
6006
E007
E007
E007
E007
E007
E007
E007
E007
6006
700E
300C
1818
0C30
03C0
ENDCHAR
STARTCHAR ograve
ENCODING 152
SWIDTH 500 0
DWIDTH 20 0
BBX 16 26 2 0
VVECTOR 10 33
SWIDTH1 0 -1000
DWIDTH1 0 -40
BITMAP 
0400
0200
0100
0080
0000
0000
03C0
0C30
1818
300C
700E
6006
E007
E007
E007
E007
E007
E007
E007
E007
6006
700E
300C
1818
0C30
03C0
ENDCHAR
STARTCHAR ocircumflex
ENCODING 153
SWIDTH 500 0
DWIDTH 20 0
BBX 16 26 2 0
VVECTOR 10 33
SWIDTH1 0 -1000
DWIDTH1 0 -40
BITMAP 
0100
0280
0440
0820
0000
0000
03C0
0C30
1818
300C
700E
6006
E007
E007
E007
E007
E007
E007
E007
E007
6006
700E
300C
1818
0C30
03C0
ENDCHAR
STARTCHAR odieresis
ENCODING 154
SWIDTH 500 0
DWIDTH 20 0
BBX 16 24 2 0
VVECTOR 10 33
SWIDTH1 0 -1000
DWIDTH1 0 -40
BITMAP 
0C30
0C30
0000
0000
03C0
0C30
1818
300C
700E
6006
E007
E007
E007
E007
E007
E007
E007
E007
6006
700E
300C
1818
0C30
03C0
ENDCHAR
STARTCHAR otilde
ENCODING 155
SWIDTH 500 0
DWIDTH 20 0
BBX 16 25 2 0
VVECTOR 10 33
SWIDTH1 0 -1000
DWIDTH1 0 -40
BITMAP 
0704
0888
1070
0000
0000
03C0
0C30
1818
300C
700E
6006
E007
E007
E007
E007
E007
E007
E007
E007
6006
700E
300C
1818
0C30
03C0
ENDCHAR
STARTCHAR uacute
ENCODING 156
SWIDTH 600 0
DWIDTH 24 0
BBX 18 26 3 0
VVECTOR 12 33
SWIDTH1 0 -1000
DWIDTH1 0 -40
BITMAP 
001000
002000
004000
008000
000000
000000
F80F80
380380
380380
380380
380380
380380
380380
380380
380380
380380
380380
380380
380380
380380
380380
380380
1C07C0
1E1B80
0FF300
03C200
ENDCHAR
STARTCHAR ugrave
ENCODING 157
SWIDTH 600 0
DWIDTH 24 0
BBX 18 26 3 0
VVECTOR 12 33
SWIDTH1 0 -1000
DWIDTH1 0 -40
BITMAP 
020000
010000
008000
004000
000000
000000
F80F80
380380
380380
380380
380380
380380
380380
380380
380380
380380
380380
380380
380380
380380
380380
380380
1C07C0
1E1B80
0FF300
03C200
ENDCHAR
STARTCHAR ucircumflex
ENCODING 158
SWIDTH 600 0
DWIDTH 24 0
BBX 18 26 3 0
VVECTOR 12 33
SWIDTH1 0 -1000
DWIDTH1 0 -40
BITMAP 
004000
00A000
011000
020800
000000
000000
F80F80
380380
380380
380380
380380
380380
380380
380380
380380
380380
380380
380380
380380
380380
380380
380380
1C07C0
1E1B80
0FF300
03C200
ENDCHAR
STARTCHAR udieresis
ENCODING 159
SWIDTH 600 0
DWIDTH 24 0
BBX 18 24 3 0
VVECTOR 12 33
SWIDTH1 0 -1000
DWIDTH1 0 -40
BITMAP 
061800
061800
000000
000000
F80F80
380380
380380
380380
380380
380380
380380
380380
380380
380380
380380
380380
380380
380380
380380
380380
1C07C0
1E1B80
0FF300
03C200
ENDCHAR
STARTCHAR dagger
ENCODING 160
SWIDTH 400 0
DWIDTH 16 0
BBX 6 13 3 17
VVECTOR 6 33
SWIDTH1 0 -1000
DWIDTH1 0 -40
BITMAP 
30
30
30
FC
30
30
30
30
30
30
30
30
30
ENDCHAR
STARTCHAR degree
ENCODING 161
SWIDTH 400 0
DWIDTH 16 0
BBX 5 5 5 24
VVECTOR 8 33
SWIDTH1 0 -1000
DWIDTH1 0 -40
BITMAP 
70
88
88
88
70
ENDCHAR
STARTCHAR cent
ENCODING 162
SWIDTH 600 0
DWIDTH 24 0
BBX 14 26 4 -3
VVECTOR 11 33
SWIDTH1 0 -1000
DWIDTH1 0 -40
BITMAP 
0240
0240
0240
03F8
0E7C
1A5C
324C
7244
6240
E240
E240
E240
E240
E240
E240
E240
E240
7240
7240
3A44
1E4C
0FF8
03E0
0240
0240
0240
ENDCHAR
STARTCHAR sterling
ENCODING 163
SWIDTH 600 0
DWIDTH 24 0
BBX 18 27 2 0
VVECTOR 11 33
SWIDTH1 0 -1000
DWIDTH1 0 -40
BITMAP 
03F000
0C7800
183C00
181800
380000
380000
380000
380000
380000
380000
380000
380000
FF8000
380000
380000
380000
380000
380000
380000
380000
380040
3800C0
3800C0
3801C0
3803C0
380F80
FFFF00
ENDCHAR
STARTCHAR section
ENCODING 164
SWIDTH 500 0
DWIDTH 20 0
BBX 14 27 3 0
VVECTOR 10 33
SWIDTH1 0 -1000
DWIDTH1 0 -40
BITMAP 
1FE0
2038
401C
C00C
C004
E000
F000
7C00
3F00
1FC0
37F0
41F8
C07C
C01C
E00C
F00C
7C08
3F90
0FF0
03F8
807C
801C
C00C
C00C
E008
F810
3FE0
ENDCHAR
STARTCHAR bullet
ENCODING 165
SWIDTH 400 0
DWIDTH 16 0
BBX 11 11 2 8
VVECTOR 8 33
SWIDTH1 0 -1000
DWIDTH1 0 -40
BITMAP 
1F00
7FC0
7FC0
FFE0
FFE0
FFE0
FFE0
FFE0
7FC0
7FC0
1F00
ENDCHAR
STARTCHAR paragraph
ENCODING 166
SWIDTH 700 0
DWIDTH 28 0
BBX 25 27 2 0
VVECTOR 15 33
SWIDTH1 0 -1000
DWIDTH1 0 -40
BITMAP 
01FFFF80
06071C00
18071C00
30071C00
70071C00
60071C00
E0071C00
E0071C00
E0071C00
E0071C00
E0071C00
E0071C00
70071C00
70071C00
380F1C00
1E371C00
07C71C00
00071C00
00071C00
00071C00
00071C00
00071C00
00071C00
00071C00
00071C00
00071C00
001FBF00
ENDCHAR
STARTCHAR germandbls
ENCODING 167
SWIDTH 500 0
DWIDTH 20 0
BBX 18 27 1 0
VVECTOR 10 33
SWIDTH1 0 -1000
DWIDTH1 0 -40
BITMAP 
007C00
018700
030380
0601C0
0C01C0
0C01C0
1801C0
180180
380300
380600
380C00
380C00
380E00
380700
380380
380380
3801C0
3801C0
3801C0
3801C0
3801C0
380380
380380
380700
380E00
783C00
F1F000
ENDCHAR
STARTCHAR registered
ENCODING 168
SWIDTH 600 0
DWIDTH 24 0
BBX 18 18 3 0
VVECTOR 12 33
SWIDTH1 0 -1000
DWIDTH1 0 -40
BITMAP 
03F000
0C0C00
100200
200100
400080
43E080
821040
821040
821040
83E040
824040
822040
421080
400080
200100
100200
0C0C00
03F000
ENDCHAR
STARTCHAR copyright
ENCODING 169
SWIDTH 600 0
DWIDTH 24 0
BBX 18 18 3 0
VVECTOR 12 33
SWIDTH1 0 -1000
DWIDTH1 0 -40
BITMAP 
03F000
0C0C00
100200
200100
400080
41E080
821040
840040
840040
840040
840040
821040
41E080
400080
200100
100200
0C0C00
03F000
ENDCHAR
STARTCHAR trademark
ENCODING 170
SWIDTH 600 0
DWIDTH 24 0
BBX 17 8 2 19
VVECTOR 11 33
SWIDTH1 0 -1000
DWIDTH1 0 -40
BITMAP 
FE8080
10C180
10A280
109480
108880
108080
108080
108080
ENDCHAR
STARTCHAR acute
ENCODING 171
SWIDTH 300 0
DWIDTH 12 0
BBX 4 4 4 23
VVECTOR 6 33
SWIDTH1 0 -1000
DWIDTH1 0 -40
BITMAP 
10
20
40
80
ENDCHAR
STARTCHAR dieresis
ENCODING 172
SWIDTH 400 0
DWIDTH 16 0
BBX 8 2 4 25
VVECTOR 8 33
SWIDTH1 0 -1000
DWIDTH1 0 -40
BITMAP 
C3
C3
ENDCHAR
STARTCHAR AE
ENCODING 174
SWIDTH 900 0
DWIDTH 36 0
BBX 28 27 4 0
VVECTOR 18 33
SWIDTH1 0 -1000
DWIDTH1 0 -40
BITMAP 
003FFFC0
003F01E0
002E00E0
004E0060
004E0020
004E0020
008E0000
008E0000
008E0000
010E0100
010E0100
010E0300
03FFFF00
020E0300
020E0100
040E0100
040E0000
040E0000
080E0000
080E0000
080E0010
100E0010
100E0030
100E0030
200E0070
200F00F0
F83FFFE0
ENDCHAR
STARTCHAR Oslash
ENCODING 175
SWIDTH 700 0
DWIDTH 28 0
BBX 21 27 3 0
VVECTOR 14 33
SWIDTH1 0 -1000
DWIDTH1 0 -40
BITMAP 
00F810
030620
0E01C0
1C00C0
3800E0
380160
700270
700470
E00438
E00838
E01038
E01038
E02038
E04038
E04038
E08038
E10038
E10038
E20038
740070
740070
3800E0
3800E0
1C01C0
2E0380
430600
00F800
ENDCHAR
STARTCHAR yen
ENCODING 180
SWIDTH 600 0
DWIDTH 24 0
BBX 21 27 1 0
VVECTOR 12 33
SWIDTH1 0 -1000
DWIDTH1 0 -40
BITMAP 
FF01F8
3C0060
1C0040
1E0080
0E0080
0F0100
070100
078200
038200
3FC7E0
01C400
01E800
00F800
00F000
007000
3FFFE0
007000
007000
007000
007000
007000
007000
007000
007000
007000
007000
01FC00
ENDCHAR
STARTCHAR ordfeminine
ENCODING 187
SWIDTH 500 0
DWIDTH 20 0
BBX 15 19 2 8
VVECTOR 10 33
SWIDTH1 0 -1000
DWIDTH1 0 -40
BITMAP 
07E0
1870
3038
7038
6078
00F8
0338
0E38
3838
7038
6038
E038
E078
F0F8
FFBA
7F3C
3C18
0000
FFFE
ENDCHAR
STARTCHAR ordmasculine
ENCODING 188
SWIDTH 500 0
DWIDTH 20 0
BBX 15 19 2 8
VVECTOR 10 33
SWIDTH1 0 -1000
DWIDTH1 0 -40
BITMAP 
0380
1C70
3838
701C
701C
E00E
E00E
E00E
E00E
E00E
E00E
E00E
701C
701C
3838
1C70
0380
0000
FFFE
ENDCHAR
STARTCHAR ae
ENCODING 190
SWIDTH 800 0
DWIDTH 32 0
BBX 24 20 4 0
VVECTOR 16 33
SWIDTH1 0 -1000
DWIDTH1 0 -40
BITMAP 
07C3E0
18EE18
307C0C
607806
E07806
E07007
C0F007
01F00F
037FFF
0C7000
387000
707000
707000
E07000
E07801
E07802
E0FC06
F19E1C
7F0FF8
1C03E0
ENDCHAR
STARTCHAR oslash
ENCODING 191
SWIDTH 500 0
DWIDTH 20 0
BBX 16 20 2 0
VVECTOR 10 33
SWIDTH1 0 -1000
DWIDTH1 0 -40
BITMAP 
03C2
0C34
1818
300C
7016
6026
E047
E047
E087
E107
E107
E207
E407
E407
6806
700E
300C
5818
8C30
03C0
ENDCHAR
STARTCHAR questiondown
ENCODING 192
SWIDTH 500 0
DWIDTH 20 0
BBX 12 27 4 0
VVECTOR 10 33
SWIDTH1 0 -1000
DWIDTH1 0 -40
BITMAP 
0080
01C0
01C0
01C0
0080
0000
0080
0080
0080
0180
0380
0780
0F00
1E00
3C00
7800
7000
E000
E000
C000
C000
C020
4030
4070
2070
10F0
0FE0
ENDCHAR
STARTCHAR exclamdown
ENCODING 193
SWIDTH 300 0
DWIDTH 12 0
BBX 5 27 4 0
VVECTOR 7 33
SWIDTH1 0 -1000
DWIDTH1 0 -40
BITMAP 
20
70
70
70
20
00
00
00
20
20
20
20
20
70
70
70
70
70
70
F8
F8
F8
F8
F8
F8
F8
70
ENDCHAR
STARTCHAR guillemotleft
ENCODING 199
SWIDTH 600 0
DWIDTH 24 0
BBX 15 19 3 0
VVECTOR 11 33
SWIDTH1 0 -1000
DWIDTH1 0 -40
BITMAP 
0042
0084
0108
0210
0420
0840
1080
2100
4200
8400
4200
2100
1080
0840
0420
0210
0108
0084
0042
ENDCHAR
STARTCHAR guillemotright
ENCODING 200
SWIDTH 600 0
DWIDTH 24 0
BBX 15 19 6 0
VVECTOR 14 33
SWIDTH1 0 -1000
DWIDTH1 0 -40
BITMAP 
8400
4200
2100
1080
0840
0420
0210
0108
0084
0042
0084
0108
0210
0420
0840
1080
2100
4200
8400
ENDCHAR
STARTCHAR ellipsis
ENCODING 201
SWIDTH 800 0
DWIDTH 32 0
BBX 22 5 5 0
VVECTOR 16 33
SWIDTH1 0 -1000
DWIDTH1 0 -40
BITMAP 
401008
E0381C
E0381C
E0381C
401008
ENDCHAR
STARTCHAR uni00A0
ENCODING 202
SWIDTH 600 0
DWIDTH 24 0
BBX 0 0 24 -7
VVECTOR 24 -7
SWIDTH1 0 0
DWIDTH1 0 0
BITMAP 
ENDCHAR
STARTCHAR Agrave
ENCODING 203
SWIDTH 800 0
DWIDTH 32 0
BBX 22 33 5 0
VVECTOR 16 33
SWIDTH1 0 -1000
DWIDTH1 0 -40
BITMAP 
000800
001000
002000
004000
000000
000000
003000
003000
003800
007800
007800
005C00
009C00
009C00
008E00
010E00
010E00
010700
020700
020700
020380
040380
040380
07FFC0
0801C0
0801C0
0800E0
1000E0
1000E0
100070
200070
200070
F801FC
ENDCHAR
STARTCHAR Atilde
ENCODING 204
SWIDTH 800 0
DWIDTH 32 0
BBX 22 32 5 0
VVECTOR 16 33
SWIDTH1 0 -1000
DWIDTH1 0 -40
BITMAP 
00E080
011100
020E00
000000
000000
003000
003000
003800
007800
007800
005C00
009C00
009C00
008E00
010E00
010E00
010700
020700
020700
020380
040380
040380
07FFC0
0801C0
0801C0
0800E0
1000E0
1000E0
100070
200070
200070
F801FC
ENDCHAR
STARTCHAR Otilde
ENCODING 205
SWIDTH 700 0
DWIDTH 28 0
BBX 21 32 3 0
VVECTOR 14 33
SWIDTH1 0 -1000
DWIDTH1 0 -40
BITMAP 
01C100
022200
041C00
000000
000000
00F800
030600
0E0380
1C01C0
3800E0
3800E0
700070
700070
E00038
E00038
E00038
E00038
E00038
E00038
E00038
E00038
E00038
E00038
E00038
700070
700070
3800E0
3800E0
1C01C0
0E0380
030600
00F800
ENDCHAR
STARTCHAR OE
ENCODING 206
SWIDTH 1000 0
DWIDTH 40 0
BBX 34 27 3 0
VVECTOR 20 33
SWIDTH1 0 -1000
DWIDTH1 0 -40
BITMAP 
00F8FFFF00
03063C0780
0E03B80380
1C01F80180
3800F80080
3800F80080
7000780000
7000780000
E000380000
E000380400
E000380400
E000380C00
E0003FFC00
E000380C00
E000380400
E000380400
E000380000
E000380000
E000380000
7000780000
7000780040
3800F80040
3800F800C0
1C01F800C0
0E03B801C0
03063C03C0
00F8FFFF80
ENDCHAR
STARTCHAR oe
ENCODING 207
SWIDTH 800 0
DWIDTH 32 0
BBX 28 20 2 0
VVECTOR 16 33
SWIDTH1 0 -1000
DWIDTH1 0 -40
BITMAP 
03C03E00
0C30E180
1819C0C0
300D8060
700F8060
60070070
E0070070
E00700F0
E007FFF0
E0070000
E0070000
E0070000
E0070000
E0070000
60078010
70078020
300FC060
1819E1C0
0C30FF80
03C03E00
ENDCHAR
STARTCHAR endash
ENCODING 208
SWIDTH 400 0
DWIDTH 16 0
BBX 12 2 2 11
VVECTOR 8 33
SWIDTH1 0 -1000
DWIDTH1 0 -40
BITMAP 
FFF0
FFF0
ENDCHAR
STARTCHAR emdash
ENCODING 209
SWIDTH 500 0
DWIDTH 20 0
BBX 17 2 2 11
VVECTOR 11 33
SWIDTH1 0 -1000
DWIDTH1 0 -40
BITMAP 
FFFF80
FFFF80
ENDCHAR
STARTCHAR quotedblleft
ENCODING 210
SWIDTH 500 0
DWIDTH 20 0
BBX 9 7 7 20
VVECTOR 12 33
SWIDTH1 0 -1000
DWIDTH1 0 -40
BITMAP 
2080
4100
C300
E380
E380
E380
4100
ENDCHAR
STARTCHAR quotedblright
ENCODING 211
SWIDTH 500 0
DWIDTH 20 0
BBX 9 7 4 20
VVECTOR 9 33
SWIDTH1 0 -1000
DWIDTH1 0 -40
BITMAP 
4100
E380
E380
E380
6180
4100
8200
ENDCHAR
STARTCHAR quoteleft
ENCODING 212
SWIDTH 300 0
DWIDTH 12 0
BBX 3 7 5 20
VVECTOR 7 33
SWIDTH1 0 -1000
DWIDTH1 0 -40
BITMAP 
20
40
C0
E0
E0
E0
40
ENDCHAR
STARTCHAR quoteright
ENCODING 213
SWIDTH 300 0
DWIDTH 12 0
BBX 3 7 5 20
VVECTOR 7 33
SWIDTH1 0 -1000
DWIDTH1 0 -40
BITMAP 
80
40
60
E0
E0
E0
40
ENDCHAR
STARTCHAR ydieresis
ENCODING 216
SWIDTH 600 0
DWIDTH 24 0
BBX 22 30 1 -6
VVECTOR 12 33
SWIDTH1 0 -1000
DWIDTH1 0 -40
BITMAP 
018600
018600
000000
000000
FE007C
380010
1C0020
1C0020
0E0040
0E0040
070080
070080
038100
038100
01C200
01C200
00E400
00E400
007800
007800
003000
003000
002000
002000
004000
004000
008000
078000
0F0000
060000
ENDCHAR
STARTCHAR missing
ENCODING -1
SWIDTH 900 0
DWIDTH 36 0
BBX 27 29 4 0
VVECTOR 17 33
SWIDTH1 0 -1000
DWIDTH1 0 -40
BITMAP 
FFFFFFE0
80000020
80000020
80000020
80000020
80000020
80000020
80000020
80000020
80000020
80000020
80000020
80000020
80000020
80000020
80000020
80000020
80000020
80000020
80000020
80000020
80000020
80000020
80000020
80000020
80000020
80000020
80000020
FFFFFFE0
ENDCHAR
ENDFONT
